<?xml version="1.0" encoding="utf-8"?>
<!-- Generator: Adobe Illustrator 23.0.0, SVG Export Plug-In . SVG Version: 6.00 Build 0)  -->
<svg version="1.1" id="Layer_1" xmlns="http://www.w3.org/2000/svg" xmlns:xlink="http://www.w3.org/1999/xlink" x="0px" y="0px"
	 viewBox="0 0 2000 1500" style="enable-background:new 0 0 200 150;" xml:space="">
<style type="text/css">
	.st0{fill:#FFBF00;}
	.st1{fill:#1356AD;}
</style>
<g>
	<path class="st0" d="M612.06,780.01c7.38,0,11.07,9.84,11.07,9.84s-1.97,1.72-4.67,4.67c-2.46,2.7-34.92,42.05-34.92,44.75
		c0,0.25,0,0.25,0.25,0.25c3.44-1.23,49.92-33.2,49.92-33.2l3.2-0.74c0,0-54.84,47.7-70.33,47.7c-1.23,0-2.21-0.25-2.95-0.98
		c-0.74-0.74-0.98-1.72-0.98-2.95c0-15.25,44.51-67.87,44.51-67.87C608.86,780.5,610.58,780.01,612.06,780.01z M632.47,763.53
		c0,2.95-2.46,5.41-5.41,5.41s-5.41-2.46-5.41-5.41c0-3.2,2.46-5.41,5.41-5.41S632.47,760.34,632.47,763.53z"/>
	<path class="st0" d="M718.53,702.55c7.87,0,12.3,7.38,12.3,13.03c0,2.21-0.74,4.18-1.97,5.16c-5.16,4.18-8.12,2.7-18.2,11.56
		c-1.72,1.72-4.67,4.92-8.11,9.1c30.25-2.21,72.79-5.66,88.03-5.66c3.2,0,5.16,0.25,5.66,0.49c0.49,0.49,0.98,1.23,0.98,2.21
		c0,4.92-8.36,15.49-11.8,16.97c-2.46,0.99-4.18,0.99-5.16,0.99h-0.98c0,0-5.41-8.61-23.61-10.08c-1.97-0.25-4.18-0.25-7.13-0.25
		c-12.54,0-33.2,1.23-51.89,2.7c-21.89,27.79-59.51,79.92-65.9,90.49c-0.98,1.48-1.23,2.46-1.23,3.2s0.25,0.98,0.98,0.98
		c3.44,0,13.77-5.9,26.07-13.28c19.92-11.56,35.41-23.11,36.64-23.85c0.25-0.25,0.49-0.25,0.74-0.25c0.74,0,1.23,0.74,1.23,0.74
		c-11.8,10.82-45,39.84-69.84,44.76c-1.97,0.49-3.44,0.49-4.92,0.49c-7.62,0-6.39-6.15-7.13-11.31v-0.25
		c0-3.2,6.89-16.48,10.08-21.39c18.69-26.8,32.46-46.23,48.69-68.61c-6.89,0.49-12.3,0.74-15,0.74
		c-12.54,0.49-18.44,1.97-23.36,2.46c-5.16,0.49-15.49,3.44-18.69,7.13c-1.72,1.97-3.2,2.46-4.18,2.46c-0.98,0-1.72-0.49-1.72-0.49
		s-1.48-4.67-1.48-9.35c0-2.7,0.49-5.41,2.21-6.88c3.2-2.95,22.62-3.2,40.33-3.2h21.39c1.48,0,3.44-0.25,5.9-0.25l7.13-9.84
		c4.67-6.39,6.64-8.12,15.25-19.18c8.61-11.31,16.48-11.31,16.48-11.31C717.06,702.55,717.79,702.55,718.53,702.55z"/>
	<path class="st0" d="M730.09,860.91c31.97-19.18,56.31-45.74,68.36-55.82l2.46,0.98c0,0.25-69.1,72.79-90,72.79
		c-1.23,0-2.21-0.25-3.2-0.74c-0.98-0.74-1.47-2.21-1.47-3.93c0-11.07,17.71-39.1,31.72-59.76c-0.25-0.98-0.49-1.72-0.74-2.46
		l-5.9,4.67c-12.29,10.08-31.97,25.08-37.38,26.07h-1.47c-5.16,0-12.54-3.44-12.54-13.52v-0.49c0-11.07,11.8-37.38,28.77-42.3
		c2.71-0.74,4.92-0.98,7.13-0.98c3.69,0,6.64,0.98,9.1,2.46l0.25,0.24c5.66,3.69,9.59,11.8,11.8,18.44
		c4.92-3.69,9.59-7.38,13.77-10.57c2.71-3.69,4.43-6.15,4.43-6.15c2.7-4.18,5.66-5.9,8.36-5.9c4.43,0,7.62,4.67,7.62,10.57v1.72
		C771.15,796.49,736.23,844.44,730.09,860.91z M726.89,800.91c-3.2,0-6.89,1.23-10.82,5.41c-7.38,8.11-11.8,17.46-11.8,21.39
		c0,0.98,0.25,1.48,0.74,1.72h0.25c2.21,0,16.48-10.82,30.25-21.64c-1.72-3.93-3.93-5.66-5.9-6.64
		C728.86,800.91,727.87,800.91,726.89,800.91z M742.38,807.8l-3.93,3.2c0.25,0.74,0.25,1.47,0.49,1.97
		C740.17,811.24,741.4,809.52,742.38,807.8z"/>
	<path class="st0" d="M1159.24,949.24c-93.53,72.13-202.94,133.23-271.69,133.23c-21.15,0-38.36-5.66-50.17-18.69
		c-2.95-3.2-4.18-7.38-4.18-12.79c0-21.99,23.32-60.94,66.37-101.76h-19.41c-45.82,41.11-72.54,82.63-72.54,113.07
		c0,28.28,22.87,46.97,75.49,46.97c8.61,0,17.95-0.49,28.28-1.48c103.85-10.74,224.77-88.5,306.68-158.56H1159.24z"/>
	<path class="st0" d="M1393.36,776.08c1.23,0,2.21,0,3.44,0.24c4.18,0.74,7.13,3.93,7.13,5.9c0,0.74-0.25,1.23-0.98,1.48
		c-2.21,0.98-18.44,19.18-18.44,22.13c0,0.49,0,0.49,0.49,0.49h0.25c4.92-1.23,24.34-21.64,27.54-23.12
		c1.23-0.49,2.46-0.98,3.69-0.98c2.46,0,4.67,1.23,6.64,3.69c0.25,0.24,0.25,0.49,0.25,0.98c0,5.16-12.79,21.4-12.79,25.08
		c0,0.49,0.25,0.74,0.74,0.74h0.25c5.16-0.98,18.2-15.74,21.15-15.74h0.24c2.21,0.74,4.43,1.48,4.43,5.41c0,0.74,0,1.72-0.25,2.7
		c-0.25,1.97-0.49,3.69-0.49,4.92c0,1.97,0.49,2.95,1.47,2.95c0.25,0,0.74-0.25,1.23-0.49c2.7-1.72,14.75-7.38,14.75-7.38l2.7,0.74
		c0,0-11.31,4.92-18.2,9.84c-3.2,2.21-5.66,3.44-7.62,3.44c-1.97,0-2.95-1.48-3.2-4.18v-3.44c0-1.97-0.25-3.44-1.48-3.44
		c-0.98,0-2.7,0.98-5.41,3.2c-6.39,5.41-14.02,11.56-19.67,11.56c-1.23,0-2.46-0.49-3.44-0.98c-0.74-0.49-1.23-1.48-1.23-2.46
		c0-6.39,10.82-20.9,10.82-22.87c0-0.25,0-0.25-0.24-0.25h-0.25c-3.69,1.23-32.95,28.53-40.08,33.44c-3.2,2.21-5.41,3.2-7.62,3.2
		c-2.71,0-4.67-1.72-6.89-4.43c-0.24-0.25-0.24-0.49-0.24-0.98c0-7.87,31.48-45.98,31.48-45.98
		C1386.47,777.55,1389.67,776.08,1393.36,776.08z"/>
	<g>
		<path class="st0" d="M1456.82,540c-5.16-0.49-10.82-0.49-17.21-0.49c-78.69,0-250.09,27.79-317.46,46.48
			c-35.66,9.59-236.81,55.08-244.19,89.02c-0.24,1.48-0.49,2.95-0.49,4.18c0,4.67,2.46,7.87,9.59,7.87c2.7,0,6.15-0.49,10.33-1.48
			c17.95-3.93,109.43-6.64,109.43-6.64c60.25-8.85,109.43-12.54,149.76-12.54c145.82,0,173.61,47.46,179.51,62.71
			c0,0-44.76,5.41-140.9,37.38c-64.73,21.52-137.03,55.21-207.9,101.39h19.39c81.9-53.46,194.26-110.17,328.43-128.93
			c0.49,1.97,0.74,4.18,0.74,6.39c0,27.61-33.25,73.44-82.86,122.54h45.76c43.08-54.13,51.84-88.19,51.84-113.93
			c0-6.39-0.49-12.3-1.23-17.95c13.77-2.7,46.48-7.87,81.89-10.08c-9.1,10.57-15.25,17.21-15.25,17.21
			c-10.33,9.1-27.79,29.26-27.79,29.26l18.69-15.25c5.9-5.16,18.2-16.72,32.7-31.72c4.83-0.17,9.78-0.33,14.68-0.42
			c7.52-0.14,15.03,1.39,21.67,4.92c8.58,4.56,17.39,13,15.51,28.21c-2.95,0-5.41,2.21-5.41,5.41c0,2.95,2.46,5.41,5.41,5.41
			c2.95,0,5.41-2.46,5.41-5.41c0-1.99-0.95-3.59-2.38-4.52l0,0c0,0,7.23-42.42-46.29-39.49h-2.95
			c29.02-30.49,64.92-72.3,81.15-102.54c6.15-11.8,9.34-22.38,9.34-31.23C1535.76,558.45,1507.48,544.18,1456.82,540z
			 M1511.66,597.79c0,28.77-46.97,88.77-75,121.97c-26.31,0.49-56.07,3.44-88.53,9.59c-6.15-25.57-29.51-41.8-63.2-55.82
			c-47.46-19.67-149.76-23.36-219.59-23.36c-39.1,0-68.12,1.23-71.8,1.48h-0.49c0-2.21,148.53-47.95,306.89-84.84
			c55.08-12.79,96.64-18.2,127.62-18.2c60.98,0,81.4,20.9,84.1,46.97V597.79z"/>
		<path class="st0" d="M1448.19,839.52c-0.24,0-0.24,0-0.24-0.25c0-2.7,32.46-42.05,34.92-44.75c2.7-2.95,4.67-4.67,4.67-4.67
			s-3.69-9.84-11.06-9.84c-1.48,0-3.2,0.49-4.92,1.47c0,0-44.51,52.62-44.51,67.87c0,1.23,0.25,2.21,0.98,2.95
			c0.74,0.74,1.72,0.98,2.95,0.98c15.49,0,70.33-47.7,70.33-47.7l-3.2,0.74C1498.11,806.32,1451.63,838.29,1448.19,839.52z"/>
	</g>
	<path class="st0" d="M1586.38,699.84c10.08,0,13.28,13.52,13.28,13.52s-0.98,0.74-5.66,4.92c-4.43,4.18-23.61,26.31-25.82,30
		c-2.46,3.93-11.8,16.97-21.15,26.8c-9.1,9.35-52.38,66.4-52.38,68.61c2.21,0,21.89-10.08,33.44-16.23
		c11.8-5.9,40.58-24.1,42.79-24.34h0.25c0.74,0,0.98,0.25,0.98,0.74c0,0.49-0.49,1.23-0.49,1.23l-2.95,1.72
		c-2.7,1.48-80.66,52.13-90,52.13c-9.59-0.24-10.08-2.21-10.58-6.64c0-4.92,21.64-41.81,28.53-49.43s17.21-26.31,25.82-34.43
		c8.85-7.87,31.23-38.11,38.85-46.97c7.87-8.85,15.74-18.44,15.74-18.44C1580.73,700.83,1583.68,699.84,1586.38,699.84z"/>
	<path class="st0" d="M1566.21,830.42c0,1.97,1.23,2.46,2.46,2.71c3.69,0,59.02-28.28,59.02-28.28l3.2,0.25
		c0,0-54.84,30.49-64.92,34.43c-1.47,0.49-2.95,0.74-4.43,0.74c-4.92,0-9.59-2.95-9.59-9.59c0-5.9,3.44-14.75,13.28-26.8
		c12.54-15.25,24.59-20.66,32.95-20.66c7.13,0,11.8,3.93,11.8,8.61c0,0.98-0.25,1.72-0.49,2.7c-4.18,11.56-27.54,12.54-27.54,12.54
		C1569.65,821.32,1566.21,827.47,1566.21,830.42z M1602.61,792.8c0-1.23-0.74-2.21-2.21-2.21c-0.24,0-0.74,0-1.23,0.24
		c-6.15,1.72-12.78,9.59-12.78,9.59C1598.43,800.17,1602.61,795.5,1602.61,792.8z"/>
	<g>
		<g>
			<path class="st1" d="M892.5,913.71v23.48h-4.87v-57.64h19.64c3.17,0,5.96,0.42,8.37,1.27c2.41,0.85,4.44,2.03,6.08,3.55
				c1.64,1.52,2.87,3.33,3.7,5.44c0.83,2.11,1.25,4.43,1.25,6.97c0,2.67-0.41,5.05-1.25,7.15c-0.83,2.1-2.06,3.87-3.68,5.33
				c-1.62,1.45-3.65,2.56-6.08,3.33c-2.43,0.76-5.23,1.15-8.39,1.15H892.5z M892.5,909.6h14.77c2.56,0,4.76-0.32,6.61-0.97
				c1.85-0.65,3.35-1.54,4.51-2.69c1.16-1.15,2.02-2.5,2.57-4.06c0.55-1.56,0.83-3.23,0.83-5.03c0-1.77-0.28-3.45-0.83-5.05
				c-0.55-1.6-1.41-2.99-2.57-4.2c-1.16-1.2-2.66-2.15-4.51-2.85c-1.85-0.7-4.05-1.05-6.61-1.05H892.5V909.6z"/>
			<path class="st1" d="M996.49,937.19h-4.91v-27.64h-32.94v27.64h-4.87v-57.64h4.87v25.89h32.94v-25.89h4.91V937.19z"/>
			<path class="st1" d="M1069.95,911.5c0,4.04-0.53,7.69-1.58,10.95c-1.06,3.26-2.55,6.04-4.49,8.33c-1.94,2.3-4.29,4.07-7.07,5.33
				c-2.77,1.25-5.86,1.88-9.26,1.88c-3.38,0-6.45-0.63-9.21-1.88c-2.76-1.25-5.13-3.03-7.11-5.33c-1.98-2.3-3.51-5.07-4.59-8.33
				c-1.08-3.26-1.63-6.91-1.63-10.95v-6.18c0-4.04,0.54-7.69,1.63-10.97c1.08-3.27,2.6-6.06,4.55-8.37
				c1.95-2.31,4.31-4.09,7.07-5.35c2.76-1.25,5.83-1.88,9.21-1.88c3.4,0,6.49,0.63,9.26,1.88c2.77,1.25,5.14,3.04,7.11,5.35
				c1.97,2.31,3.48,5.1,4.53,8.37c1.05,3.27,1.58,6.93,1.58,10.97V911.5z M1065.08,905.24c0-3.41-0.4-6.48-1.19-9.23
				c-0.79-2.74-1.94-5.07-3.44-6.99c-1.51-1.91-3.35-3.39-5.54-4.43c-2.19-1.04-4.67-1.56-7.44-1.56c-2.72,0-5.17,0.52-7.34,1.56
				c-2.18,1.04-4.03,2.52-5.54,4.43c-1.52,1.92-2.68,4.24-3.48,6.99c-0.81,2.74-1.21,5.82-1.21,9.23v6.25
				c0,3.43,0.41,6.52,1.23,9.26s1.99,5.08,3.52,7.01c1.53,1.93,3.39,3.41,5.56,4.44c2.18,1.03,4.63,1.54,7.34,1.54
				c2.8,0,5.29-0.51,7.46-1.54c2.18-1.03,4.01-2.51,5.5-4.44c1.49-1.93,2.63-4.26,3.4-7.01s1.17-5.83,1.17-9.26V905.24z"/>
			<path class="st1" d="M1136.49,883.7h-19.76v53.49h-4.87V883.7h-19.71v-4.16h44.34V883.7z"/>
			<path class="st1" d="M1203.5,911.5c0,4.04-0.53,7.69-1.58,10.95c-1.06,3.26-2.55,6.04-4.49,8.33c-1.94,2.3-4.29,4.07-7.07,5.33
				c-2.77,1.25-5.86,1.88-9.26,1.88c-3.38,0-6.45-0.63-9.21-1.88c-2.76-1.25-5.13-3.03-7.11-5.33c-1.98-2.3-3.51-5.07-4.59-8.33
				c-1.08-3.26-1.63-6.91-1.63-10.95v-6.18c0-4.04,0.54-7.69,1.63-10.97c1.08-3.27,2.6-6.06,4.55-8.37
				c1.95-2.31,4.31-4.09,7.07-5.35c2.76-1.25,5.83-1.88,9.21-1.88c3.4,0,6.49,0.63,9.26,1.88c2.77,1.25,5.14,3.04,7.11,5.35
				c1.97,2.31,3.48,5.1,4.53,8.37c1.05,3.27,1.58,6.93,1.58,10.97V911.5z M1198.63,905.24c0-3.41-0.4-6.48-1.19-9.23
				c-0.79-2.74-1.94-5.07-3.44-6.99c-1.51-1.91-3.35-3.39-5.54-4.43c-2.19-1.04-4.67-1.56-7.44-1.56c-2.72,0-5.17,0.52-7.34,1.56
				c-2.18,1.04-4.03,2.52-5.54,4.43c-1.52,1.92-2.68,4.24-3.48,6.99c-0.81,2.74-1.21,5.82-1.21,9.23v6.25
				c0,3.43,0.41,6.52,1.23,9.26s1.99,5.08,3.52,7.01c1.53,1.93,3.39,3.41,5.56,4.44c2.18,1.03,4.63,1.54,7.34,1.54
				c2.8,0,5.29-0.51,7.46-1.54c2.18-1.03,4.01-2.51,5.5-4.44c1.49-1.93,2.63-4.26,3.4-7.01s1.17-5.83,1.17-9.26V905.24z"/>
			<path class="st1" d="M1273.6,930.34c-0.5,0.71-1.26,1.52-2.28,2.42c-1.02,0.9-2.34,1.73-3.96,2.49
				c-1.62,0.77-3.58,1.41-5.86,1.94c-2.28,0.53-4.93,0.79-7.94,0.79c-3.41,0-6.52-0.61-9.34-1.84c-2.82-1.23-5.26-2.98-7.3-5.27
				c-2.05-2.28-3.64-5.05-4.77-8.29c-1.13-3.25-1.7-6.89-1.7-10.93v-7.01c0-3.96,0.51-7.53,1.54-10.73
				c1.03-3.19,2.51-5.91,4.45-8.15c1.94-2.24,4.28-3.97,7.03-5.19c2.74-1.21,5.85-1.82,9.3-1.82c3.19,0,6.02,0.43,8.47,1.29
				c2.45,0.86,4.54,2.05,6.26,3.58c1.72,1.53,3.07,3.33,4.08,5.4c1,2.07,1.66,4.32,1.98,6.75h-4.87c-0.29-1.72-0.79-3.35-1.51-4.91
				c-0.71-1.56-1.7-2.92-2.97-4.1c-1.27-1.17-2.83-2.11-4.69-2.81c-1.86-0.7-4.1-1.05-6.71-1.05c-2.82,0-5.32,0.52-7.48,1.56
				c-2.16,1.04-3.99,2.51-5.48,4.39c-1.49,1.89-2.62,4.16-3.38,6.83c-0.77,2.67-1.15,5.62-1.15,8.87v7.09
				c0,3.38,0.43,6.43,1.31,9.17c0.87,2.73,2.1,5.06,3.7,6.99c1.6,1.93,3.52,3.42,5.76,4.47c2.24,1.06,4.74,1.58,7.48,1.58
				c2.22,0,4.17-0.16,5.86-0.5c1.69-0.33,3.15-0.74,4.39-1.25c1.24-0.5,2.26-1.04,3.07-1.62c0.8-0.58,1.42-1.13,1.84-1.66v-14.89
				h-15.48v-4.12h20.35V930.34z"/>
			<path class="st1" d="M1325.16,913.2h-16.75v23.99h-4.91v-57.64h18.73c3.01,0,5.72,0.37,8.13,1.11c2.42,0.74,4.47,1.83,6.18,3.26
				c1.7,1.44,3.01,3.21,3.92,5.33c0.91,2.11,1.36,4.54,1.36,7.28c0,1.9-0.29,3.69-0.87,5.37c-0.58,1.68-1.4,3.19-2.45,4.53
				c-1.05,1.34-2.32,2.51-3.78,3.48c-1.46,0.98-3.08,1.73-4.85,2.26l14.41,24.51v0.51h-5.18L1325.16,913.2z M1308.42,909.04h14.93
				c2.24,0,4.22-0.34,5.92-1.03c1.7-0.69,3.12-1.61,4.26-2.75c1.13-1.15,1.99-2.48,2.55-4c0.57-1.52,0.85-3.09,0.85-4.73
				c0-1.98-0.31-3.76-0.95-5.34s-1.58-2.93-2.83-4.04c-1.25-1.11-2.79-1.96-4.61-2.55c-1.82-0.59-3.92-0.89-6.3-0.89h-13.82V909.04z
				"/>
			<path class="st1" d="M1402.43,921.04h-26.17l-5.94,16.15h-5.11l21.81-57.64h4.63l21.81,57.64h-5.07L1402.43,921.04z
				 M1377.77,916.88h23.12l-11.56-31.4L1377.77,916.88z"/>
			<path class="st1" d="M1443.03,913.71v23.48h-4.87v-57.64h19.64c3.17,0,5.96,0.42,8.37,1.27c2.42,0.85,4.44,2.03,6.08,3.55
				c1.64,1.52,2.87,3.33,3.7,5.44c0.83,2.11,1.25,4.43,1.25,6.97c0,2.67-0.41,5.05-1.25,7.15s-2.06,3.87-3.68,5.33
				c-1.62,1.45-3.65,2.56-6.08,3.33c-2.43,0.76-5.22,1.15-8.39,1.15H1443.03z M1443.03,909.6h14.77c2.56,0,4.76-0.32,6.61-0.97
				c1.85-0.65,3.35-1.54,4.51-2.69c1.16-1.15,2.02-2.5,2.57-4.06c0.55-1.56,0.83-3.23,0.83-5.03c0-1.77-0.28-3.45-0.83-5.05
				c-0.55-1.6-1.41-2.99-2.57-4.2c-1.16-1.2-2.67-2.15-4.51-2.85c-1.85-0.7-4.05-1.05-6.61-1.05h-14.77V909.6z"/>
			<path class="st1" d="M1547.02,937.19h-4.91v-27.64h-32.94v27.64h-4.87v-57.64h4.87v25.89h32.94v-25.89h4.91V937.19z"/>
			<path class="st1" d="M1593.68,910.98l17.62-31.44h5.62l-20.83,35.95v21.7h-4.87v-21.7l-20.79-35.95h5.78L1593.68,910.98z"/>
		</g>
	</g>
	<path class="st0" d="M686.08,619.25c-5.21,2.72-10.06,6.05-14.5,9.91l0,0v0c-8.15,7.18-16.15,14.72-24.1,22.73l-5.16,5.41
		c-21.15,21.64-41.56,46.23-63.2,75.25C498.71,839.03,415.59,996.9,415.59,996.9l119.02-334.43l2.46-6.64l2.21-16.97l6.89-8.12
		c-0.74-10.82-14.51-17.21-27.79-17.21c-10.57,0-20.9,4.18-23.85,13.28c-0.98,2.95-5.41,16.23-12.3,36.64l-3.2,8.85
		c-33.44,98.85-109.92,326.07-109.92,367.14c0,3.93,0.74,6.15,2.21,6.39c3.69,0.74,7.13,1.23,10.33,1.23
		c15.25,0,28.77-12.05,62.95-74.76c31.48-57.54,118.77-210.74,227.96-313.53l4.92-4.67l0.16-0.15
		c11.43-10.5,24.58-19.01,38.95-24.88c92.78-37.91,132.43,7.43,145.48,29.49c3.37,5.7,10.66,7.66,16.41,4.39l0,0
		c5.38-3.06,7.61-9.72,5.1-15.39C839.48,547.8,719.01,602.06,686.08,619.25z"/>
	<g>
		<path class="st1" d="M1216.19,464.47c1.2,2.42,1.52,5.28,2.15,7.96c0.19,0.8,0.08,1.67,0.08,2.51c0,25.79,0.01,51.59,0.01,77.38
			c4.17-1.48,8.55-2.34,12.99-2.34c1.58,0,3.13,0.11,4.66,0.29c0.01-24.99,0.02-49.98-0.04-74.97
			c-0.04-15.48-6.67-27.42-20.03-35.43c-6.36-3.81-13.38-5.28-20.73-5.28c-21.93-0.01-43.85-0.02-65.78,0.03
			c-1.5,0-2.27-0.45-2.95-1.81c-5.98-12.01-12.11-23.93-18.03-35.97c-2.11-4.3-5.32-6.1-10.01-6.1
			c-33.99,0.05-67.97,0.07-101.96-0.01c-4.94-0.01-8.16,2.15-10.29,6.41c-5.91,11.82-11.87,23.62-17.73,35.47
			c-0.73,1.47-1.52,2.02-3.2,2.02c-21.93-0.06-43.85-0.05-65.78-0.04c-8.89,0.01-17.11,2.28-24.28,7.65
			c-11.1,8.32-16.43,19.51-16.38,33.37c0.06,15.54,0.01,31.08,0.01,46.63c0,28.06,0,56.13-0.01,84.19c3.35,1.4,6.44,3.27,9.24,5.49
			c3.02,1.68,5.8,3.74,8.28,6.13c0-47.47,0-94.94-0.02-142.42c0-5.95,1.35-11.39,5.35-15.93c4.59-5.21,10.44-7.49,17.34-7.48
			c23.8,0.05,47.59-0.05,71.39,0.07c5.43,0.03,8.92-2.04,11.29-6.97c5.66-11.8,11.65-23.44,17.44-35.18
			c0.7-1.41,1.49-1.92,3.08-1.92c30.12,0.05,60.23,0.05,90.35,0c1.51,0,2.28,0.45,2.95,1.81c5.92,11.96,12,23.84,17.87,35.83
			c2.19,4.48,5.53,6.42,10.45,6.4c23.99-0.07,47.98-0.02,71.97-0.04C1205.15,452.22,1212.09,456.15,1216.19,464.47z"/>
		<path class="st1" d="M1047.4,500.37c37.19-0.11,71.62,27.89,73.9,77.77l13.71-4.95c-2.29-55.97-40.77-90.34-87.56-90.32
			c-48.29,0.02-87.66,39.4-87.7,87.7c-0.01,18.03,5.49,34.82,14.91,48.79l16.45-6.98c-9.29-12.86-13.77-22.77-13.79-41.75
			C977.3,531.8,1008.52,500.49,1047.4,500.37z"/>
	</g>
	<polygon class="st1" points="1079.26,444.68 1012.69,444.68 1023.09,423.07 1068.86,423.07 	"/>
	<circle class="st1" cx="914.16" cy="490.18" r="11.79"/>
</g>
</svg>
